<svg width="470" height="473" viewBox="0 0 470 473" fill="none" xmlns="http://www.w3.org/2000/svg">
<path d="M215.107 389.478L218.922 394.88C220.116 394.682 221.324 394.632 222.546 394.73C225.151 394.939 227.494 395.742 229.574 397.139C231.655 398.536 233.245 400.363 234.346 402.618C235.445 404.9 235.883 407.41 235.661 410.147C235.44 412.858 234.605 415.239 233.154 417.29C231.701 419.367 229.835 420.929 227.556 421.977C225.277 423.025 222.835 423.445 220.23 423.236C217.598 423.025 215.255 422.222 213.202 420.826C211.121 419.429 209.545 417.59 208.473 415.311C207.372 413.055 206.932 410.572 207.152 407.861C207.353 405.389 208.068 403.173 209.298 401.211C210.499 399.275 212.055 397.741 213.966 396.61L208.17 388.922L215.107 389.478ZM229.919 409.687C230.07 407.826 229.844 406.163 229.241 404.697C228.638 403.23 227.73 402.061 226.516 401.188C225.274 400.339 223.816 399.848 222.141 399.713C220.467 399.579 218.961 399.833 217.625 400.475C216.286 401.143 215.201 402.153 214.369 403.504C213.537 404.855 213.045 406.461 212.894 408.322C212.742 410.182 212.97 411.832 213.575 413.272C214.178 414.738 215.087 415.895 216.303 416.741C217.518 417.588 218.963 418.078 220.638 418.212C222.312 418.347 223.831 418.094 225.194 417.454C226.531 416.812 227.615 415.816 228.447 414.464C229.277 413.14 229.768 411.547 229.919 409.687Z" fill="black"/>
<path d="M182.524 410.096L187.861 388.588L193.339 389.929L192.665 392.647C193.596 391.886 194.698 391.374 195.973 391.109C197.215 390.864 198.497 390.904 199.818 391.227C201.501 391.639 202.904 392.353 204.025 393.369C205.141 394.411 205.904 395.71 206.314 397.265C206.693 398.84 206.644 400.585 206.169 402.501L203.038 415.118L197.599 413.786L200.537 401.946C200.961 400.237 200.861 398.813 200.238 397.672C199.608 396.557 198.555 395.818 197.078 395.457C195.576 395.089 194.285 395.254 193.205 395.95C192.119 396.673 191.364 397.888 190.941 399.596L188.002 411.437L182.524 410.096Z" fill="black"/>
<path d="M180.597 398.016C179.714 400.074 178.526 401.729 177.032 402.979C175.514 404.218 173.871 404.971 172.103 405.236C170.311 405.491 168.543 405.25 166.799 404.512C165.276 403.867 164.082 403 163.215 401.909C162.323 400.808 161.733 399.646 161.445 398.424L160.2 401.328L155.006 399.13L163.741 378.765L168.935 380.963L167.658 383.94C168.731 383.265 169.994 382.858 171.446 382.72C172.863 382.596 174.333 382.856 175.855 383.5C177.575 384.228 178.957 385.334 180.003 386.819C181.024 388.294 181.611 390.004 181.763 391.95C181.879 393.911 181.491 395.933 180.597 398.016ZM164.568 391.145C164.031 392.395 163.82 393.565 163.932 394.655C164.035 395.77 164.403 396.737 165.039 397.556C165.663 398.399 166.455 399.024 167.412 399.429C168.37 399.834 169.354 399.976 170.364 399.853C171.374 399.73 172.332 399.325 173.236 398.636C174.106 397.962 174.804 397.012 175.329 395.787C175.855 394.561 176.072 393.379 175.98 392.24C175.853 391.115 175.49 390.136 174.89 389.303C174.265 388.459 173.486 387.84 172.553 387.445C171.595 387.04 170.599 386.893 169.564 387.006C168.519 387.142 167.562 387.548 166.692 388.222C165.812 388.921 165.104 389.896 164.568 391.145Z" fill="black"/>
<path d="M133.533 394.951L149.43 369.982L154.172 372.961L138.275 397.93L133.533 394.951Z" fill="black"/>
<path d="M115.461 375.086C116.202 375.738 116.619 376.513 116.711 377.411C116.765 378.311 116.482 379.11 115.861 379.806C115.239 380.503 114.484 380.869 113.596 380.904C112.669 380.941 111.836 380.633 111.095 379.982C110.354 379.33 109.957 378.554 109.902 377.653C109.81 376.755 110.074 375.958 110.696 375.261C111.317 374.565 112.091 374.198 113.017 374.161C113.906 374.126 114.721 374.434 115.461 375.086ZM115.147 371.293L129.897 354.755L134.101 358.455L119.351 374.992L115.147 371.293Z" fill="black"/>
<path d="M100.749 349.273L109.076 342.521C109.655 342.05 109.97 341.572 110.019 341.086C110.031 340.596 109.765 340.021 109.223 339.362L107.572 337.354L111.238 334.381L113.474 337.1C116.471 340.746 116.188 344.014 112.626 346.903L104.331 353.63L106.007 355.669L102.434 358.567L100.758 356.527L96.5017 359.979L92.9202 355.622L97.1765 352.17L94.0268 348.339L97.5996 345.441L100.749 349.273Z" fill="black"/>
<path d="M75.6126 319.196L110.822 314.821L113.817 319.974L101.828 321.316L87.553 339.738L84.397 334.309L94.9512 321.663L78.6077 324.349L75.6126 319.196Z" fill="black"/>
<path d="M77.2211 268.742L79.4599 279.634L85.0442 280.379L86.2281 286.139L56.8044 281.861L55.4917 275.475L80.8727 260.084L82.0645 265.882L77.2211 268.742ZM73.1365 271.121L62.5028 277.4L74.7632 279.036L73.1365 271.121Z" fill="black"/>
<path d="M80.8571 247.461C80.9306 249.273 80.6768 250.911 80.0957 252.375C79.4879 253.841 78.6418 255.022 77.5573 255.92C76.4717 256.79 75.251 257.293 73.8954 257.427L73.6667 251.792C74.515 251.651 75.2044 251.21 75.7348 250.468C76.264 249.7 76.5065 248.769 76.4622 247.677C76.419 246.611 76.1723 245.794 75.7222 245.225C75.271 244.629 74.7123 244.344 74.0462 244.371C73.3268 244.4 72.809 244.794 72.4929 245.554C72.149 246.288 71.7964 247.463 71.4349 249.079C71.1022 250.747 70.7444 252.122 70.3613 253.205C69.9771 254.262 69.3611 255.194 68.5131 256.001C67.6641 256.783 66.4935 257.203 65.0014 257.263C63.7757 257.312 62.6425 257.01 61.6019 256.358C60.5602 255.679 59.7198 254.699 59.0806 253.417C58.4403 252.108 58.084 250.561 58.0116 248.776C57.9045 246.138 58.4853 244.006 59.7538 242.381C60.9956 240.757 62.7324 239.82 64.9641 239.57L65.1814 244.926C64.3053 245.041 63.6277 245.442 63.1485 246.128C62.6415 246.789 62.4102 247.666 62.4545 248.758C62.4956 249.77 62.714 250.549 63.1097 251.094C63.5044 251.612 64.0348 251.857 64.7009 251.831C65.447 251.801 66.0047 251.405 66.3741 250.643C66.7169 249.882 67.0562 248.707 67.3921 247.119C67.7269 245.505 68.0864 244.169 68.4706 243.113C68.8548 242.057 69.4847 241.137 70.3604 240.355C71.2083 239.547 72.3645 239.101 73.8289 239.015C75.1079 238.964 76.2682 239.278 77.3099 239.957C78.3506 240.609 79.191 241.59 79.8312 242.898C80.4438 244.182 80.7857 245.702 80.8571 247.461Z" fill="black"/>
<path d="M82.0469 222.853C81.8269 224.653 81.3118 226.229 80.5016 227.582C79.665 228.932 78.639 229.963 77.4235 230.676C76.2112 231.362 74.9252 231.664 73.5652 231.58L74.2496 225.982C75.1098 225.978 75.8615 225.653 76.5048 225.005C77.1514 224.331 77.541 223.451 77.6737 222.366C77.8031 221.307 77.6916 220.461 77.3392 219.828C76.9901 219.168 76.4845 218.798 75.8227 218.718C75.1079 218.632 74.5331 218.939 74.0983 219.638C73.6403 220.308 73.1024 221.412 72.4846 222.949C71.8869 224.542 71.3115 225.842 70.7585 226.85C70.2087 227.831 69.45 228.653 68.4825 229.315C67.5182 229.951 66.2948 230.18 64.8122 230.001C63.5944 229.854 62.5245 229.376 61.6026 228.566C60.6839 227.73 60.0126 226.629 59.5887 225.261C59.1681 223.868 59.0662 222.284 59.283 220.511C59.6033 217.89 60.5208 215.879 62.0355 214.477C63.5236 213.071 65.3894 212.423 67.6327 212.533L66.9823 217.853C66.0989 217.827 65.3653 218.115 64.7813 218.716C64.1742 219.287 63.8043 220.116 63.6716 221.201C63.5486 222.207 63.6385 223.01 63.9412 223.611C64.2471 224.185 64.731 224.512 65.3929 224.591C66.1342 224.681 66.7487 224.379 67.2364 223.686C67.6977 222.989 68.2223 221.884 68.8104 220.37C69.4016 218.83 69.9722 217.569 70.522 216.588C71.0718 215.607 71.842 214.8 72.8328 214.167C73.8003 213.505 75.0137 213.248 76.4731 213.398C77.7439 213.551 78.8386 214.045 79.7573 214.882C80.6792 215.691 81.3505 216.793 81.7711 218.186C82.1685 219.55 82.2605 221.106 82.0469 222.853Z" fill="black"/>
<path d="M68.1773 183.598L89.4735 189.725L87.8945 195.139L85.2037 194.365C85.9247 195.322 86.39 196.441 86.5997 197.722C86.7912 198.97 86.6966 200.247 86.3159 201.553C85.8306 203.217 85.0554 204.589 83.9902 205.67C82.8993 206.744 81.5665 207.456 79.9918 207.808C78.3989 208.127 76.6542 208.013 74.7578 207.468L62.2646 203.873L63.8323 198.497L75.5568 201.87C77.2482 202.357 78.6783 202.311 79.8473 201.731C80.9906 201.144 81.775 200.121 82.2006 198.662C82.6336 197.177 82.5248 195.884 81.8742 194.781C81.198 193.67 80.0142 192.872 78.3228 192.385L66.5984 189.012L68.1773 183.598Z" fill="black"/>
<path d="M78.9305 167.739C78.1795 166.589 77.7496 165.355 77.6409 164.036C77.5436 162.693 77.8168 161.348 78.4606 160L83.7794 162.507L83.1414 163.842C82.3828 165.43 82.1819 166.81 82.5388 167.98C82.9073 169.127 84.0202 170.138 85.8776 171.013L95.864 175.72L93.4501 180.773L73.4048 171.325L75.8188 166.272L78.9305 167.739Z" fill="black"/>
<path d="M92.1419 158.423C90.2944 157.156 88.9069 155.672 87.9795 153.969C87.0673 152.244 86.66 150.494 86.7576 148.718C86.8705 146.92 87.4672 145.244 88.5476 143.689C89.4911 142.331 90.5878 141.337 91.8377 140.707C93.1028 140.055 94.3663 139.709 95.6282 139.668L93.0219 137.882L96.2405 133.25L114.518 145.781L111.299 150.412L108.627 148.58C109.074 149.759 109.218 151.071 109.059 152.514C108.894 153.92 108.339 155.302 107.396 156.66C106.33 158.192 104.961 159.322 103.286 160.05C101.627 160.755 99.8239 160.99 97.8768 160.754C95.923 160.482 94.0114 159.705 92.1419 158.423ZM102.16 144.147C101.039 143.378 99.9298 142.941 98.8336 142.836C97.7155 142.716 96.6888 142.885 95.7535 143.343C94.7962 143.786 94.0208 144.435 93.4273 145.289C92.8338 146.143 92.4949 147.074 92.4106 148.083C92.3263 149.092 92.5312 150.106 93.0254 151.124C93.5129 152.105 94.3064 152.972 95.4061 153.726C96.5058 154.48 97.6258 154.924 98.7659 155.059C99.8992 155.157 100.937 154.996 101.879 154.575C102.836 154.132 103.604 153.494 104.182 152.662C104.776 151.808 105.122 150.866 105.222 149.835C105.299 148.788 105.095 147.775 104.607 146.794C104.098 145.798 103.282 144.916 102.16 144.147Z" fill="black"/>
<path d="M108.619 119.457C110.454 117.559 112.545 116.606 114.892 116.596C117.219 116.568 119.463 117.585 121.624 119.646L131.03 128.62L127.137 132.645L118.281 124.196C117.007 122.982 115.727 122.368 114.44 122.357C113.134 122.327 111.952 122.858 110.895 123.95C109.82 125.062 109.315 126.275 109.379 127.59C109.443 128.867 110.111 130.113 111.385 131.327L120.241 139.776L116.348 143.802L100.314 128.505L104.207 124.48L106.204 126.385C106.029 125.186 106.146 123.99 106.558 122.797C106.968 121.567 107.655 120.454 108.619 119.457Z" fill="black"/>
<path d="M127.626 117.06C126.243 115.231 125.41 113.357 125.128 111.438C124.83 109.497 125.062 107.66 125.824 105.927C126.57 104.173 127.798 102.657 129.507 101.381C131.709 99.7384 133.943 98.9355 136.212 98.9727C138.486 98.9727 140.616 99.7781 142.604 101.389L137.764 105.002C136.928 104.428 136.039 104.159 135.098 104.196C134.162 104.196 133.245 104.531 132.347 105.201C131.065 106.158 130.404 107.384 130.364 108.878C130.308 110.35 130.923 111.937 132.21 113.639C133.481 115.319 134.845 116.348 136.301 116.725C137.741 117.081 139.102 116.781 140.384 115.824C142.2 114.468 142.775 112.775 142.108 110.744L146.948 107.131C147.905 109.412 148.083 111.658 147.482 113.87C146.882 116.081 145.492 118.001 143.312 119.628C141.602 120.904 139.803 121.664 137.915 121.909C136.011 122.132 134.17 121.842 132.393 121.039C130.599 120.215 129.01 118.889 127.626 117.06Z" fill="black"/>
<path d="M168.338 91.1589C168.712 91.8662 169.001 92.5275 169.206 93.1426L154.84 100.631C155.706 101.984 156.788 102.833 158.087 103.179C159.385 103.525 160.673 103.365 161.95 102.699C163.794 101.737 164.689 100.263 164.635 98.2769L169.991 95.4849C170.42 97.6669 170.155 99.7901 169.195 101.854C168.222 103.895 166.565 105.526 164.224 106.746C162.332 107.732 160.412 108.207 158.462 108.171C156.524 108.098 154.724 107.518 153.063 106.429C151.426 105.328 150.078 103.776 149.019 101.771C147.947 99.7438 147.421 97.748 147.438 95.784C147.456 93.82 147.992 92.0371 149.046 90.4353C150.099 88.8335 151.596 87.5272 153.535 86.5164C155.403 85.5426 157.282 85.0744 159.171 85.1117C161.085 85.1368 162.836 85.6824 164.425 86.7487C166.025 87.7791 167.329 89.2491 168.338 91.1589ZM162.448 92.4253C161.751 91.1645 160.755 90.391 159.457 90.105C158.148 89.7953 156.842 89.9795 155.542 90.6575C154.312 91.2985 153.471 92.2181 153.019 93.4164C152.577 94.5787 152.611 95.8693 153.119 97.2883L162.448 92.4253Z" fill="black"/>
<path d="M210.271 91.6315C209.27 91.793 208.391 91.6242 207.634 91.1252C206.899 90.5956 206.456 89.8702 206.305 88.9491C206.155 88.028 206.346 87.2139 206.879 86.5066C207.433 85.7687 208.211 85.3191 209.211 85.1576C210.185 85.0004 211.04 85.1866 211.775 85.7162C212.506 86.2195 212.947 86.9317 213.098 87.8528C213.248 88.7738 213.059 89.6012 212.531 90.3348C211.998 91.042 211.245 91.4743 210.271 91.6315Z" fill="black"/>
<path d="M266.545 97.4636L263.18 91.7746C261.974 91.8771 260.766 91.8306 259.555 91.6351C256.975 91.2187 254.705 90.2309 252.744 88.6719C250.783 87.1129 249.345 85.1655 248.431 82.8299C247.52 80.468 247.287 77.9317 247.73 75.2211C248.169 72.5368 249.195 70.2308 250.808 68.3031C252.424 66.3491 254.411 64.941 256.768 64.0789C259.125 63.2168 261.593 62.994 264.173 63.4104C266.779 63.8311 269.049 64.8189 270.984 66.3736C272.944 67.9327 274.367 69.891 275.251 72.2487C276.166 74.5844 276.404 77.0943 275.965 79.7786C275.564 82.2261 274.672 84.378 273.287 86.2344C271.933 88.0688 270.258 89.4731 268.261 90.4473L273.416 98.5727L266.545 97.4636ZM253.416 76.1389C253.115 77.9811 253.206 79.657 253.688 81.1665C254.171 82.676 254.981 83.9144 256.12 84.8815C257.29 85.8266 258.704 86.433 260.362 86.7007C262.021 86.9684 263.542 86.8359 264.926 86.303C266.315 85.7438 267.479 84.8241 268.418 83.5441C269.357 82.264 269.977 80.7029 270.278 78.8607C270.58 77.0186 270.487 75.3559 270 73.8727C269.517 72.3632 268.705 71.138 267.562 70.1971C266.418 69.2563 265.018 68.652 263.359 68.3843C261.701 68.1166 260.166 68.247 258.755 68.7757C257.371 69.3086 256.21 70.215 255.271 71.4951C254.336 72.7488 253.718 74.2968 253.416 76.1389Z" fill="black"/>
<path d="M300.697 79.5161L293.637 100.521L288.284 98.7462L289.176 96.0921C288.187 96.7754 287.046 97.1979 285.754 97.3594C284.495 97.504 283.221 97.3623 281.93 96.9343C280.285 96.3887 278.944 95.5649 277.908 94.4627C276.88 93.3353 276.224 91.9801 275.941 90.397C275.691 88.797 275.88 87.0618 276.509 85.1913L280.651 72.8687L285.966 74.6313L282.079 86.1955C281.518 87.8638 281.503 89.2914 282.032 90.4784C282.57 91.6401 283.56 92.4601 285.003 92.9385C286.471 93.4253 287.772 93.3648 288.904 92.7571C290.045 92.1241 290.896 90.9735 291.457 89.3052L295.344 77.741L300.697 79.5161Z" fill="black"/>
<path d="M301.638 91.7002C302.684 89.7197 304.003 88.1666 305.593 87.0409C307.206 85.9274 308.905 85.3094 310.689 85.1869C312.497 85.0766 314.24 85.4591 315.919 86.3343C317.385 87.0986 318.506 88.0589 319.282 89.2154C320.082 90.3842 320.577 91.5891 320.765 92.8302L322.242 90.0363L327.243 92.6434L316.89 112.236L311.889 109.629L313.402 106.765C312.278 107.351 310.986 107.655 309.527 107.677C308.105 107.687 306.66 107.31 305.194 106.545C303.539 105.682 302.25 104.469 301.327 102.905C300.427 101.354 299.981 99.6024 299.986 97.6507C300.028 95.6878 300.579 93.7043 301.638 91.7002ZM317.065 99.8327C317.701 98.6303 318.006 97.4814 317.982 96.3861C317.97 95.2672 317.68 94.2742 317.113 93.4071C316.558 92.5164 315.819 91.8307 314.897 91.35C313.975 90.8692 313.005 90.6494 311.988 90.6906C310.971 90.7318 309.984 91.0592 309.026 91.6727C308.105 92.2749 307.333 93.1655 306.71 94.3443C306.087 95.5232 305.775 96.6839 305.775 97.8264C305.81 98.9576 306.094 99.9624 306.625 100.841C307.18 101.731 307.906 102.411 308.805 102.879C309.727 103.36 310.709 103.586 311.749 103.557C312.803 103.505 313.79 103.177 314.711 102.575C315.645 101.949 316.43 101.035 317.065 99.8327Z" fill="black"/>
<path d="M348.306 98.5256L330.447 122.131L325.959 118.781L343.818 95.176L348.306 98.5256Z" fill="black"/>
<path d="M364.713 119.769C364.027 119.06 363.674 118.254 363.654 117.351C363.673 116.449 364.019 115.676 364.695 115.032C365.37 114.388 366.152 114.084 367.041 114.12C367.967 114.158 368.773 114.531 369.459 115.241C370.145 115.95 370.479 116.755 370.461 117.657C370.48 118.56 370.153 119.333 369.477 119.978C368.802 120.622 368.001 120.925 367.075 120.888C366.186 120.851 365.399 120.478 364.713 119.769ZM364.721 123.575L348.688 138.872L344.795 134.846L360.828 119.55L364.721 123.575Z" fill="black"/>
<path d="M377.291 146.675L368.449 152.737C367.833 153.159 367.481 153.611 367.393 154.091C367.342 154.579 367.56 155.173 368.047 155.874L369.531 158.009L365.638 160.678L363.629 157.787C360.936 153.911 361.481 150.677 365.264 148.083L374.072 142.044L372.566 139.876L376.36 137.275L377.866 139.443L382.386 136.344L385.604 140.975L381.085 144.074L383.915 148.147L380.121 150.748L377.291 146.675Z" fill="black"/>
<path d="M399.908 178.672L364.469 180.208L361.9 174.83L373.955 174.455L389.666 157.233L392.373 162.9L380.836 174.661L397.339 173.295L399.908 178.672Z" fill="black"/>
<path d="M394.21 228.836L392.861 217.799L387.356 216.609L386.642 210.773L415.619 217.391L416.41 223.863L389.87 237.176L389.152 231.3L394.21 228.836ZM398.473 226.791L409.579 221.383L397.493 218.771L398.473 226.791Z" fill="black"/>
<path d="M388.853 249.758C388.926 247.946 389.312 246.334 390.01 244.92C390.734 243.508 391.673 242.398 392.827 241.59C393.98 240.809 395.237 240.406 396.599 240.38L396.371 246.016C395.514 246.088 394.791 246.473 394.202 247.17C393.612 247.894 393.295 248.802 393.251 249.894C393.208 250.96 393.387 251.794 393.79 252.398C394.191 253.027 394.725 253.356 395.391 253.382C396.111 253.411 396.659 253.059 397.035 252.327C397.437 251.623 397.884 250.48 398.375 248.898C398.842 247.262 399.31 245.92 399.78 244.871C400.248 243.849 400.938 242.969 401.848 242.232C402.758 241.521 403.959 241.195 405.451 241.255C406.677 241.304 407.782 241.695 408.766 242.429C409.75 243.188 410.508 244.233 411.041 245.562C411.573 246.918 411.803 248.488 411.731 250.273C411.624 252.911 410.872 254.989 409.476 256.508C408.107 258.028 406.3 258.823 404.055 258.893L404.272 253.538C405.155 253.493 405.863 253.148 406.396 252.502C406.955 251.884 407.256 251.028 407.301 249.936C407.342 248.923 407.187 248.13 406.837 247.555C406.485 247.008 405.977 246.72 405.31 246.694C404.564 246.664 403.976 247.014 403.546 247.744C403.143 248.475 402.71 249.619 402.246 251.175C401.782 252.757 401.315 254.06 400.847 255.082C400.378 256.104 399.676 256.97 398.74 257.68C397.829 258.417 396.64 258.77 395.174 258.738C393.895 258.687 392.764 258.281 391.78 257.521C390.796 256.788 390.038 255.743 389.506 254.388C388.999 253.06 388.781 251.517 388.853 249.758Z" fill="black"/>
<path d="M385.664 274.189C386.029 272.413 386.67 270.883 387.587 269.6C388.53 268.322 389.637 267.376 390.906 266.763C392.17 266.176 393.477 265.978 394.826 266.17L393.69 271.694C392.832 271.629 392.057 271.894 391.363 272.488C390.664 273.108 390.204 273.953 389.984 275.024C389.769 276.069 389.812 276.921 390.112 277.581C390.406 278.266 390.88 278.675 391.534 278.808C392.239 278.951 392.837 278.691 393.327 278.029C393.838 277.398 394.464 276.341 395.204 274.858C395.929 273.318 396.608 272.068 397.241 271.108C397.868 270.174 398.691 269.416 399.709 268.834C400.722 268.277 401.96 268.147 403.424 268.444C404.626 268.688 405.654 269.25 406.507 270.13C407.356 271.037 407.936 272.189 408.247 273.585C408.554 275.008 408.527 276.594 408.168 278.344C407.636 280.93 406.559 282.861 404.935 284.137C403.338 285.419 401.425 285.915 399.198 285.627L400.277 280.377C401.156 280.473 401.91 280.245 402.541 279.693C403.192 279.172 403.628 278.376 403.848 277.305C404.052 276.312 404.028 275.505 403.775 274.882C403.516 274.285 403.06 273.921 402.407 273.788C401.675 273.64 401.038 273.892 400.496 274.544C399.98 275.201 399.367 276.26 398.658 277.722C397.944 279.21 397.273 280.42 396.646 281.354C396.018 282.288 395.185 283.031 394.146 283.582C393.128 284.165 391.897 284.323 390.455 284.058C389.2 283.804 388.149 283.223 387.301 282.316C386.447 281.436 385.867 280.284 385.561 278.862C385.275 277.471 385.309 275.913 385.664 274.189Z" fill="black"/>
<path d="M396.308 314.42L375.571 306.609L377.583 301.34L380.203 302.327C379.561 301.316 379.188 300.163 379.082 298.87C378.992 297.61 379.19 296.346 379.675 295.075C380.293 293.456 381.177 292.15 382.326 291.158C383.501 290.176 384.887 289.573 386.486 289.348C388.1 289.158 389.83 289.411 391.676 290.107L403.842 294.69L401.844 299.921L390.428 295.621C388.781 295 387.351 294.932 386.139 295.415C384.951 295.909 384.086 296.865 383.544 298.285C382.993 299.73 382.996 301.028 383.556 302.179C384.14 303.34 385.256 304.23 386.903 304.851L398.32 309.151L396.308 314.42Z" fill="black"/>
<path d="M384.3 329.367C384.956 330.573 385.285 331.838 385.287 333.161C385.276 334.507 384.895 335.825 384.144 337.116L379.044 334.191L379.787 332.912C380.672 331.39 380.983 330.032 380.722 328.837C380.447 327.665 379.419 326.568 377.638 325.546L368.061 320.054L370.875 315.213L390.098 326.237L387.284 331.078L384.3 329.367Z" fill="black"/>
<path d="M370.369 337.595C372.108 339.006 373.372 340.597 374.16 342.369C374.93 344.161 375.195 345.938 374.955 347.7C374.698 349.483 373.968 351.106 372.766 352.568C371.716 353.845 370.542 354.748 369.246 355.276C367.932 355.824 366.645 356.067 365.383 356.006L367.838 357.996L364.256 362.353L347.045 348.395L350.626 344.038L353.143 346.079C352.792 344.868 352.754 343.549 353.028 342.124C353.306 340.736 353.97 339.403 355.02 338.126C356.206 336.684 357.662 335.668 359.39 335.078C361.101 334.508 362.917 334.419 364.839 334.81C366.765 335.239 368.608 336.167 370.369 337.595ZM359.232 351.017C360.288 351.874 361.358 352.398 362.443 352.591C363.548 352.801 364.585 352.715 365.554 352.333C366.544 351.969 367.369 351.385 368.03 350.582C368.69 349.778 369.103 348.877 369.268 347.878C369.434 346.879 369.311 345.853 368.9 344.799C368.493 343.782 367.772 342.854 366.736 342.014C365.701 341.174 364.62 340.641 363.494 340.415C362.372 340.226 361.325 340.303 360.352 340.647C359.362 341.012 358.545 341.585 357.902 342.368C357.241 343.171 356.82 344.083 356.638 345.102C356.476 346.139 356.599 347.165 357.006 348.182C357.434 349.215 358.176 350.161 359.232 351.017Z" fill="black"/>
<path d="M350.799 375.113C348.817 376.857 346.656 377.64 344.316 377.46C341.995 377.301 339.84 376.107 337.852 373.878L329.199 364.177L333.403 360.477L341.55 369.612C342.722 370.925 343.948 371.639 345.23 371.755C346.53 371.89 347.75 371.455 348.891 370.451C350.053 369.429 350.654 368.261 350.696 366.946C350.735 365.668 350.169 364.372 348.997 363.059L340.85 353.924L345.054 350.225L359.805 366.762L355.601 370.462L353.763 368.402C353.842 369.612 353.628 370.794 353.122 371.95C352.614 373.143 351.84 374.197 350.799 375.113Z" fill="black"/>
<path d="M331.654 375.981C332.885 377.916 333.564 379.851 333.691 381.787C333.831 383.746 333.452 385.558 332.553 387.225C331.669 388.914 330.323 390.326 328.517 391.461C326.191 392.922 323.899 393.542 321.641 393.323C319.375 393.14 317.317 392.166 315.465 390.4L320.58 387.188C321.367 387.827 322.231 388.166 323.172 388.205C324.105 388.28 325.046 388.02 325.994 387.424C327.349 386.573 328.107 385.405 328.267 383.918C328.441 382.455 327.956 380.823 326.81 379.023C325.679 377.246 324.403 376.111 322.982 375.618C321.576 375.147 320.195 375.337 318.84 376.188C316.921 377.394 316.212 379.036 316.713 381.114L311.598 384.327C310.829 381.976 310.832 379.722 311.609 377.565C312.385 375.409 313.925 373.607 316.229 372.16C318.035 371.026 319.889 370.412 321.791 370.32C323.706 370.251 325.518 370.687 327.224 371.631C328.946 372.596 330.422 374.047 331.654 375.981Z" fill="black"/>
<path d="M288.989 398.542C288.674 397.807 288.439 397.124 288.285 396.494L303.204 390.181C302.451 388.762 301.441 387.829 300.175 387.38C298.909 386.931 297.612 386.988 296.286 387.549C294.371 388.36 293.36 389.757 293.254 391.742L287.691 394.096C287.44 391.886 287.876 389.791 288.999 387.81C290.133 385.853 291.915 384.36 294.347 383.331C296.311 382.5 298.263 382.181 300.203 382.373C302.129 382.601 303.875 383.324 305.443 384.543C306.986 385.772 308.204 387.428 309.097 389.511C310.001 391.619 310.365 393.651 310.189 395.608C310.013 397.564 309.335 399.299 308.156 400.812C306.977 402.324 305.38 403.506 303.366 404.359C301.426 405.18 299.516 405.496 297.636 405.307C295.732 405.128 294.031 404.444 292.533 403.253C291.022 402.097 289.841 400.527 288.989 398.542ZM294.961 397.752C295.554 399.065 296.484 399.916 297.754 400.305C299.034 400.719 300.35 400.64 301.7 400.069C302.977 399.528 303.89 398.679 304.437 397.521C304.971 396.397 305.042 395.108 304.65 393.652L294.961 397.752Z" fill="black"/>
<path d="M263.742 405.392C264.752 405.311 265.614 405.549 266.328 406.107C267.018 406.694 267.401 407.453 267.476 408.383C267.552 409.313 267.296 410.109 266.707 410.772C266.095 411.463 265.283 411.849 264.273 411.93C263.29 412.009 262.453 411.755 261.763 411.168C261.076 410.608 260.694 409.863 260.618 408.933C260.543 408.002 260.798 407.193 261.384 406.504C261.972 405.841 262.758 405.471 263.742 405.392Z" fill="black"/>
</svg>
